# xmcd
#
# Track frame offsets: 
#        150
#        18344
#        31547
#        44015
#        58746
#        77201
#        91180
#        107075
#        121319
#        133054
#        146075
#        172404
#        189457
#        201601
#        228552
#        243954
#        256377
#        266214
#        279802
#        299455
#
# Disc length: 4027 seconds
#
# Revision: 0
# Processed by: cddbd v1.5.2PL0 Copyright (c) Steve Scherf et al.
# Submitted via: ExactAudioCopy v1.0b4
#
DISCID=310fb914
DTITLE=Sonny Landreth - Mississippi Blues
DYEAR=2010
DGENRE=Blues
TTITLE0=I Know You Rider
TTITLE1=Prodigal Son
TTITLE2=Country Blues
TTITLE3=Don't Cry For Me
TTITLE4=M'Sippi Blues
TTITLE5=Lady Come Lately
TTITLE6=She Left Me A Mule
TTITLE7=Forever Lillie Mae
TTITLE8=That's The Way It's Gonna Be
TTITLE9=Трек1Good Enough For Me0
TTITLE10=Sunrise
TTITLE11=Rise Shining
TTITLE12=Baby Ain't That Love
TTITLE13=Ain't Gonna Worry
TTITLE14=Lazy Boy
TTITLE15=The Only One
TTITLE16=Think It Over (Lazy Boy)
TTITLE17=You're Why I'm So Lonely
TTITLE18=Lookin' For A Good Time
TTITLE19=Lazy Boy (Reprise)
EXTD=
EXTT0=
EXTT1=
EXTT2=
EXTT3=
EXTT4=
EXTT5=
EXTT6=
EXTT7=
EXTT8=
EXTT9=
EXTT10=
EXTT11=
EXTT12=
EXTT13=
EXTT14=
EXTT15=
EXTT16=
EXTT17=
EXTT18=
EXTT19=
PLAYORDER=
